<?xml version="1.0" encoding="UTF-8" standalone="no"?>
<svg
   xmlns:dc="http://purl.org/dc/elements/1.1/"
   xmlns:cc="http://creativecommons.org/ns#"
   xmlns:rdf="http://www.w3.org/1999/02/22-rdf-syntax-ns#"
   xmlns:svg="http://www.w3.org/2000/svg"
   xmlns="http://www.w3.org/2000/svg"
   viewBox="0 0 793.70135 566.92932"
   height="566.92932"
   width="793.70135"
   xml:space="preserve"
   id="svg2"
   version="1.1"><metadata
     id="metadata8"><rdf:RDF><cc:Work
         rdf:about=""><dc:format>image/svg+xml</dc:format><dc:type
           rdf:resource="http://purl.org/dc/dcmitype/StillImage" /></cc:Work></rdf:RDF></metadata><defs
     id="defs6"><clipPath
       id="clipPath18"
       clipPathUnits="userSpaceOnUse"><path
         id="path16"
         d="M 0,425.197 H 595.276 V 0 H 0 Z" /></clipPath></defs><g
     transform="matrix(1.3333333,0,0,-1.3333333,0,566.92933)"
     id="g10"><g
       id="g12"><g
         clip-path="url(#clipPath18)"
         id="g14"><g
           transform="translate(379.3025,169.4635)"
           id="g20"><path
             id="path22"
             style="fill:#223c83;fill-opacity:1;fill-rule:nonzero;stroke:none"
             d="m 0,0 c -0.773,0.358 -1.422,0.537 -1.948,0.537 -0.586,0 -1.115,-0.186 -1.585,-0.559 -0.472,-0.374 -0.738,-0.82 -0.798,-1.337 -0.056,-0.466 0.033,-0.848 0.264,-1.149 0.231,-0.302 0.647,-0.581 1.249,-0.84 1.002,-0.419 1.658,-0.796 1.969,-1.131 0.427,-0.45 0.596,-1.043 0.508,-1.783 -0.103,-0.876 -0.504,-1.599 -1.205,-2.171 -0.614,-0.495 -1.363,-0.742 -2.247,-0.742 -0.677,0 -1.389,0.197 -2.135,0.594 l 0.092,0.776 c 0.952,-0.457 1.713,-0.684 2.285,-0.684 0.677,0 1.284,0.266 1.82,0.8 0.38,0.387 0.603,0.844 0.665,1.37 0.081,0.686 -0.154,1.226 -0.701,1.623 -0.133,0.092 -0.698,0.37 -1.695,0.834 -0.527,0.244 -0.927,0.529 -1.2,0.857 -0.341,0.411 -0.471,0.952 -0.392,1.622 0.106,0.892 0.575,1.585 1.412,2.08 0.581,0.351 1.223,0.526 1.923,0.526 0.558,0 1.16,-0.15 1.81,-0.446 z" /></g><g
           transform="translate(383.5838,170.4576)"
           id="g24"><path
             id="path26"
             style="fill:#223c83;fill-opacity:1;fill-rule:nonzero;stroke:none"
             d="M 0,0 H 0.721 L 0.062,-5.564 c -0.078,-0.664 -0.108,-1.159 -0.09,-1.486 0.019,-0.328 0.097,-0.655 0.232,-0.983 0.196,-0.464 0.505,-0.83 0.922,-1.096 0.418,-0.267 0.897,-0.401 1.438,-0.401 0.518,0 1.009,0.126 1.474,0.378 0.463,0.251 0.851,0.597 1.161,1.04 0.231,0.335 0.403,0.685 0.519,1.05 0.115,0.366 0.212,0.869 0.287,1.509 L 6.661,0 H 7.382 L 6.709,-5.69 C 6.566,-6.901 6.27,-7.823 5.821,-8.456 5.455,-8.981 4.971,-9.404 4.37,-9.724 c -0.625,-0.328 -1.262,-0.491 -1.91,-0.491 -0.853,0 -1.583,0.266 -2.189,0.8 -0.47,0.418 -0.771,0.912 -0.906,1.479 -0.135,0.568 -0.139,1.381 -0.014,2.44 z" /></g><g
           transform="translate(400.114,170.0006)"
           id="g28"><path
             id="path30"
             style="fill:#223c83;fill-opacity:1;fill-rule:nonzero;stroke:none"
             d="m 0,0 c -1.334,0 -2.52,-0.529 -3.559,-1.588 -0.813,-0.823 -1.284,-1.775 -1.412,-2.856 -0.169,-1.425 0.199,-2.579 1.099,-3.463 0.773,-0.746 1.704,-1.119 2.793,-1.119 1.326,0 2.492,0.494 3.501,1.484 0.869,0.854 1.374,1.859 1.511,3.017 0.162,1.371 -0.229,2.513 -1.171,3.428 C 2.028,-0.389 1.109,-0.022 0,0 m -5.302,-7.152 -0.938,-7.942 h -0.721 l 1.146,9.69 c 0.106,0.906 0.242,1.611 0.404,2.113 0.163,0.503 0.412,0.994 0.751,1.474 0.559,0.8 1.289,1.424 2.187,1.875 0.819,0.418 1.674,0.628 2.565,0.628 1.524,0 2.726,-0.553 3.609,-1.657 C 4.498,-1.962 4.815,-3.143 4.653,-4.514 4.469,-6.075 3.748,-7.37 2.492,-8.398 1.42,-9.274 0.219,-9.712 -1.113,-9.712 c -1.943,0 -3.339,0.853 -4.189,2.56" /></g><g
           transform="translate(417.1609,165.898)"
           id="g32"><path
             id="path34"
             style="fill:#223c83;fill-opacity:1;fill-rule:nonzero;stroke:none"
             d="M 0,0 C 0.021,0.572 -0.062,1.094 -0.25,1.565 -0.569,2.404 -1.103,3.051 -1.848,3.508 -2.486,3.904 -3.203,4.103 -3.994,4.103 -5.146,4.103 -6.195,3.708 -7.146,2.92 -8.096,2.132 -8.688,1.158 -8.924,0 Z m 0.421,-1.564 c -0.411,-1.03 -0.955,-1.852 -1.629,-2.469 -1.146,-1.051 -2.46,-1.576 -3.946,-1.576 -1.508,0 -2.698,0.541 -3.567,1.622 -0.832,1.02 -1.167,2.213 -1.005,3.576 0.119,1.005 0.502,1.939 1.153,2.8 0.542,0.715 1.199,1.283 1.972,1.702 0.862,0.465 1.761,0.697 2.699,0.697 1.348,0 2.465,-0.453 3.347,-1.359 C 0.104,2.751 0.519,1.874 0.688,0.8 0.742,0.419 0.754,0.107 0.726,-0.137 0.696,-0.381 0.629,-0.533 0.519,-0.594 0.408,-0.655 0.146,-0.685 -0.264,-0.685 h -8.763 c -0.046,-0.769 0.092,-1.47 0.414,-2.102 0.341,-0.655 0.817,-1.17 1.428,-1.543 0.638,-0.397 1.351,-0.594 2.135,-0.594 0.784,0 1.552,0.201 2.3,0.606 1.114,0.601 1.923,1.519 2.427,2.754 z" /></g><g
           transform="translate(425.5574,170.4801)"
           id="g36"><path
             id="path38"
             style="fill:#223c83;fill-opacity:1;fill-rule:nonzero;stroke:none"
             d="M 0,0 -0.081,-0.686 C -1.12,-0.716 -1.883,-0.988 -2.365,-1.502 -2.85,-2.017 -3.164,-2.891 -3.31,-4.125 l -0.695,-5.884 h -0.721 l 0.705,5.953 C -3.784,-1.337 -2.444,0.016 0,0" /></g><g
           transform="translate(433.6394,169.0406)"
           id="g40"><path
             id="path42"
             style="fill:#223c83;fill-opacity:1;fill-rule:nonzero;stroke:none"
             d="M 0,0 C 0.319,0.434 0.652,0.766 0.998,0.994 1.636,1.428 2.294,1.646 2.972,1.646 3.467,1.646 3.933,1.521 4.368,1.274 4.803,1.026 5.129,0.697 5.349,0.286 5.515,-0.042 5.612,-0.389 5.643,-0.754 5.67,-1.12 5.644,-1.664 5.558,-2.388 L 4.827,-8.569 H 4.106 l 0.731,6.181 C 4.941,-1.505 4.926,-0.842 4.787,-0.4 4.666,-0.004 4.425,0.322 4.062,0.577 3.7,0.832 3.298,0.96 2.856,0.96 2.445,0.96 2.046,0.852 1.658,0.635 1.271,0.417 0.965,0.133 0.74,-0.217 0.406,-0.727 0.184,-1.455 0.071,-2.399 l -0.729,-6.17 h -0.72 l 0.734,6.215 c 0.124,1.043 0.052,1.817 -0.215,2.32 -0.164,0.297 -0.408,0.537 -0.733,0.72 -0.324,0.183 -0.671,0.274 -1.037,0.274 -0.373,0 -0.743,-0.093 -1.112,-0.279 -0.368,-0.188 -0.678,-0.437 -0.928,-0.749 -0.214,-0.268 -0.37,-0.56 -0.47,-0.88 -0.098,-0.321 -0.189,-0.838 -0.274,-1.555 L -6.13,-8.569 h -0.721 l 0.752,6.364 c 0.079,0.67 0.197,1.209 0.352,1.617 0.154,0.407 0.389,0.778 0.703,1.113 0.682,0.747 1.499,1.121 2.451,1.121 C -1.999,1.646 -1.469,1.496 -1,1.2 -0.532,0.902 -0.199,0.503 0,0" /></g><g
           transform="translate(452.242,165.898)"
           id="g44"><path
             id="path46"
             style="fill:#223c83;fill-opacity:1;fill-rule:nonzero;stroke:none"
             d="M 0,0 C 0.021,0.572 -0.062,1.094 -0.25,1.565 -0.569,2.404 -1.103,3.051 -1.849,3.508 -2.486,3.904 -3.203,4.103 -3.994,4.103 -5.146,4.103 -6.195,3.708 -7.146,2.92 -8.096,2.132 -8.688,1.158 -8.924,0 Z m 0.421,-1.564 c -0.411,-1.03 -0.955,-1.852 -1.629,-2.469 -1.146,-1.051 -2.46,-1.576 -3.946,-1.576 -1.508,0 -2.698,0.541 -3.568,1.622 -0.831,1.02 -1.166,2.213 -1.005,3.576 0.12,1.005 0.503,1.939 1.154,2.8 0.542,0.715 1.199,1.283 1.972,1.702 0.862,0.465 1.761,0.697 2.699,0.697 1.348,0 2.465,-0.453 3.347,-1.359 C 0.104,2.751 0.519,1.874 0.688,0.8 0.742,0.419 0.754,0.107 0.726,-0.137 0.696,-0.381 0.629,-0.533 0.519,-0.594 0.408,-0.655 0.146,-0.685 -0.264,-0.685 h -8.763 c -0.046,-0.769 0.092,-1.47 0.414,-2.102 0.341,-0.655 0.817,-1.17 1.428,-1.543 0.638,-0.397 1.351,-0.594 2.135,-0.594 0.784,0 1.552,0.201 2.3,0.606 1.114,0.601 1.923,1.519 2.427,2.754 z" /></g><g
           transform="translate(460.6375,170.4801)"
           id="g48"><path
             id="path50"
             style="fill:#223c83;fill-opacity:1;fill-rule:nonzero;stroke:none"
             d="M 0,0 -0.082,-0.686 C -1.12,-0.716 -1.883,-0.988 -2.366,-1.502 -2.85,-2.017 -3.164,-2.891 -3.31,-4.125 l -0.696,-5.884 h -0.72 l 0.704,5.953 C -3.784,-1.337 -2.444,0.016 0,0" /></g><g
           transform="translate(468.4305,169.772)"
           id="g52"><path
             id="path54"
             style="fill:#223c83;fill-opacity:1;fill-rule:nonzero;stroke:none"
             d="m 0,0 h -0.719 c -0.907,0 -1.661,-0.104 -2.264,-0.309 -0.77,-0.258 -1.44,-0.704 -2.01,-1.337 -0.699,-0.769 -1.111,-1.66 -1.231,-2.673 -0.109,-0.93 0.055,-1.76 0.495,-2.492 0.388,-0.639 0.902,-1.099 1.539,-1.381 0.637,-0.283 1.485,-0.423 2.544,-0.423 0.121,0 0.332,0.003 0.629,0.011 L -1.1,-9.301 c -1.232,0 -2.171,0.08 -2.815,0.24 -1.074,0.266 -1.903,0.911 -2.492,1.931 -0.482,0.83 -0.659,1.759 -0.538,2.787 0.158,1.333 0.742,2.481 1.754,3.44 1.011,0.953 2.277,1.474 3.796,1.566 0.299,0.015 0.791,0.023 1.476,0.023 z" /></g><g
           transform="translate(476.2547,170.0006)"
           id="g56"><path
             id="path58"
             style="fill:#223c83;fill-opacity:1;fill-rule:nonzero;stroke:none"
             d="m 0,0 c -1.279,0 -2.429,-0.477 -3.448,-1.428 -0.916,-0.861 -1.446,-1.893 -1.588,-3.097 -0.16,-1.356 0.217,-2.484 1.132,-3.382 0.757,-0.746 1.688,-1.119 2.793,-1.119 1.294,0 2.448,0.486 3.463,1.462 0.876,0.837 1.381,1.828 1.516,2.971 C 4.03,-3.223 3.691,-2.1 2.851,-1.224 2.104,-0.438 1.155,-0.03 0,0 m 3.577,-7.152 c -1.253,-1.707 -2.85,-2.56 -4.793,-2.56 -1.546,0 -2.759,0.566 -3.638,1.701 -0.759,0.99 -1.06,2.157 -0.901,3.497 0.19,1.601 0.94,2.914 2.249,3.943 1.058,0.838 2.239,1.257 3.542,1.257 1.287,0 2.369,-0.415 3.246,-1.246 0.803,-0.754 1.246,-1.703 1.332,-2.845 0.03,-0.45 -0.006,-1.116 -0.11,-1.999 L 4.017,-9.529 H 3.296 Z" /></g><g
           transform="translate(489.8328,170.0006)"
           id="g60"><path
             id="path62"
             style="fill:#223c83;fill-opacity:1;fill-rule:nonzero;stroke:none"
             d="m 0,0 c -1.309,0 -2.477,-0.499 -3.5,-1.497 -0.871,-0.846 -1.373,-1.848 -1.51,-3.005 -0.164,-1.387 0.226,-2.529 1.171,-3.428 0.759,-0.731 1.679,-1.096 2.761,-1.096 0.777,0 1.54,0.206 2.291,0.616 0.812,0.442 1.459,1.044 1.938,1.806 0.412,0.647 0.66,1.321 0.742,2.022 0.169,1.424 -0.199,2.578 -1.1,3.462 C 2.05,-0.396 1.118,-0.022 0,0 m 4.225,-1.874 0.938,7.941 h 0.72 L 4.737,-3.622 C 4.631,-4.528 4.496,-5.233 4.333,-5.736 4.171,-6.239 3.92,-6.729 3.582,-7.21 3.023,-8.011 2.294,-8.635 1.396,-9.084 0.569,-9.503 -0.286,-9.712 -1.17,-9.712 c -1.523,0 -2.727,0.552 -3.609,1.656 -0.797,0.991 -1.116,2.171 -0.952,3.542 0.183,1.562 0.905,2.857 2.162,3.886 1.07,0.875 2.272,1.314 3.605,1.314 1.943,0 3.338,-0.854 4.189,-2.56" /></g><g
           transform="translate(503.4236,170.0006)"
           id="g64"><path
             id="path66"
             style="fill:#223c83;fill-opacity:1;fill-rule:nonzero;stroke:none"
             d="m 0,0 c -1.304,0 -2.464,-0.507 -3.482,-1.52 -0.855,-0.853 -1.35,-1.85 -1.485,-2.994 -0.157,-1.333 0.201,-2.449 1.077,-3.347 0.754,-0.777 1.673,-1.165 2.754,-1.165 1.356,0 2.54,0.505 3.55,1.519 0.856,0.853 1.349,1.84 1.482,2.959 0.158,1.341 -0.2,2.468 -1.075,3.383 C 2.096,-0.411 1.155,-0.022 0,0 m 0.081,0.686 c 1.515,0 2.725,-0.561 3.63,-1.68 C 4.493,-1.969 4.804,-3.158 4.638,-4.56 4.453,-6.121 3.713,-7.411 2.419,-8.433 1.337,-9.286 0.12,-9.712 -1.228,-9.712 c -0.824,0 -1.59,0.205 -2.303,0.617 -0.828,0.472 -1.432,1.139 -1.81,1.999 -0.355,0.792 -0.478,1.654 -0.368,2.582 0.188,1.584 0.932,2.892 2.233,3.919 1.043,0.83 2.229,1.258 3.557,1.281" /></g><g
           transform="translate(516.4256,169.4635)"
           id="g68"><path
             id="path70"
             style="fill:#223c83;fill-opacity:1;fill-rule:nonzero;stroke:none"
             d="m 0,0 c -0.773,0.358 -1.422,0.537 -1.948,0.537 -0.587,0 -1.115,-0.186 -1.585,-0.559 -0.472,-0.374 -0.738,-0.82 -0.799,-1.337 -0.055,-0.466 0.033,-0.848 0.264,-1.149 0.232,-0.302 0.648,-0.581 1.25,-0.84 1.002,-0.419 1.658,-0.796 1.969,-1.131 0.426,-0.45 0.596,-1.043 0.508,-1.783 -0.103,-0.876 -0.505,-1.599 -1.205,-2.171 -0.614,-0.495 -1.364,-0.742 -2.247,-0.742 -0.678,0 -1.389,0.197 -2.135,0.594 l 0.092,0.776 c 0.952,-0.457 1.713,-0.684 2.284,-0.684 0.678,0 1.284,0.266 1.821,0.8 0.38,0.387 0.602,0.844 0.665,1.37 0.081,0.686 -0.154,1.226 -0.701,1.623 -0.134,0.092 -0.699,0.37 -1.695,0.834 -0.527,0.244 -0.928,0.529 -1.2,0.857 -0.341,0.411 -0.471,0.952 -0.392,1.622 0.106,0.892 0.575,1.585 1.411,2.08 0.581,0.351 1.223,0.526 1.924,0.526 0.557,0 1.16,-0.15 1.81,-0.446 z" /></g><g
           transform="translate(193.4334,175.1324)"
           id="g72"><path
             id="path74"
             style="fill:#223c83;fill-opacity:1;fill-rule:nonzero;stroke:none"
             d="m 0,0 c 0.365,-4.652 -1.793,-8.617 -4.821,-8.854 -3.029,-0.238 -5.78,3.341 -6.145,7.994 -0.364,4.652 1.794,8.617 4.822,8.854 C -3.115,8.231 -0.364,4.652 0,0" /></g><g
           transform="translate(141.4705,215.3629)"
           id="g76"><path
             id="path78"
             style="fill:#223c83;fill-opacity:1;fill-rule:nonzero;stroke:none"
             d="m 0,0 v -17.955 c 0,0 10.822,-7.613 13.031,-1.958 0,0 5.522,11.11 -13.031,19.913" /></g><g
           transform="translate(156.7107,172.6666)"
           id="g80"><path
             id="path82"
             style="fill:#223c83;fill-opacity:1;fill-rule:nonzero;stroke:none"
             d="m 0,0 v 6.25 l -15.24,5.439 V -9.968 Z" /></g><g
           transform="translate(145.6668,145.4029)"
           id="g84"><path
             id="path86"
             style="fill:#223c83;fill-opacity:1;fill-rule:nonzero;stroke:none"
             d="m 0,0 c -1.201,1.549 -2.058,3.73 -2.41,6.143 -0.352,2.412 -0.156,4.747 0.552,6.574 0.662,1.712 1.685,2.751 2.881,2.926 0.121,0.016 0.241,0.025 0.362,0.025 1.089,0 2.223,-0.699 3.235,-2.005 C 5.822,12.114 6.677,9.934 7.029,7.521 7.728,2.746 6.155,-1.604 3.597,-1.979 2.4,-2.157 1.125,-1.45 0,0 m 9.939,7.856 c -0.801,5.49 -4.346,9.517 -7.918,8.995 -0.034,-0.005 -0.066,-0.016 -0.099,-0.022 -0.358,0.05 -0.716,0.06 -1.073,0.008 -1.646,-0.239 -3.006,-1.549 -3.833,-3.684 -0.782,-2.019 -1.002,-4.57 -0.62,-7.185 0.381,-2.614 1.323,-4.996 2.649,-6.708 1.25,-1.612 2.717,-2.473 4.184,-2.473 0.182,0 0.363,0.013 0.542,0.039 0.162,0.024 0.316,0.066 0.47,0.109 0.228,-0.003 0.455,0.004 0.684,0.039 3.571,0.521 5.816,5.393 5.014,10.882" /></g><g
           transform="translate(149.4373,152.3492)"
           id="g88"><path
             id="path90"
             style="fill:#223c83;fill-opacity:1;fill-rule:nonzero;stroke:none"
             d="m 0,0 c 0.112,-1.428 -0.451,-2.637 -1.258,-2.7 -0.806,-0.064 -1.552,1.043 -1.664,2.471 -0.111,1.427 0.451,2.636 1.259,2.7 C -0.856,2.534 -0.111,1.428 0,0" /></g><g
           transform="translate(119.2498,165.3814)"
           id="g92"><path
             id="path94"
             style="fill:#223c83;fill-opacity:1;fill-rule:nonzero;stroke:none"
             d="m 0,0 c -1.059,1.365 -1.813,3.287 -2.123,5.412 -0.311,2.125 -0.138,4.183 0.485,5.793 0.584,1.509 1.486,2.424 2.539,2.578 0.107,0.015 0.212,0.023 0.32,0.023 0.959,0 1.959,-0.617 2.85,-1.767 C 5.13,10.674 5.884,8.753 6.193,6.627 6.809,2.419 5.424,-1.414 3.17,-1.744 2.115,-1.901 0.991,-1.277 0,0 M 8.731,7.103 C 8.021,11.967 4.895,15.537 1.747,15.078 1.457,15.035 1.181,14.951 0.913,14.846 0.857,14.841 0.803,14.844 0.748,14.836 -0.702,14.624 -1.901,13.471 -2.63,11.59 -3.318,9.811 -3.513,7.562 -3.176,5.259 c 0.336,-2.304 1.165,-4.404 2.335,-5.911 1.101,-1.42 2.393,-2.179 3.687,-2.179 0.159,0 0.319,0.012 0.477,0.034 0.292,0.043 0.57,0.133 0.836,0.249 0.054,0.005 0.108,0.002 0.161,0.01 3.148,0.46 5.122,4.776 4.411,9.641" /></g><g
           transform="translate(119.2498,165.3814)"
           id="g96"><path
             id="path98"
             style="fill:#223c83;fill-opacity:1;fill-rule:nonzero;stroke:none"
             d="m 0,0 c -1.059,1.365 -1.813,3.287 -2.123,5.412 -0.311,2.125 -0.138,4.183 0.485,5.793 0.584,1.509 1.486,2.424 2.539,2.578 0.107,0.015 0.212,0.023 0.32,0.023 0.959,0 1.959,-0.617 2.85,-1.767 C 5.13,10.674 5.884,8.753 6.193,6.627 6.809,2.419 5.424,-1.414 3.17,-1.744 2.115,-1.901 0.991,-1.277 0,0 M 8.731,7.103 C 8.021,11.967 4.895,15.537 1.747,15.078 1.457,15.035 1.181,14.951 0.913,14.846 0.857,14.841 0.803,14.844 0.748,14.836 -0.702,14.624 -1.901,13.471 -2.63,11.59 -3.318,9.811 -3.513,7.562 -3.176,5.259 c 0.336,-2.304 1.165,-4.404 2.335,-5.911 1.101,-1.42 2.393,-2.179 3.687,-2.179 0.159,0 0.319,0.012 0.477,0.034 0.292,0.043 0.57,0.133 0.836,0.249 0.054,0.005 0.108,0.002 0.161,0.01 3.148,0.46 5.122,4.776 4.411,9.641" /></g><g
           transform="translate(122.2859,171.65)"
           id="g100"><path
             id="path102"
             style="fill:#223c83;fill-opacity:1;fill-rule:nonzero;stroke:none"
             d="m 0,0 c 0.099,-1.258 -0.397,-2.323 -1.108,-2.379 -0.711,-0.056 -1.368,0.919 -1.466,2.177 -0.1,1.258 0.397,2.323 1.108,2.379 C -0.755,2.232 -0.099,1.258 0,0" /></g><g
           transform="translate(176.202,220.8765)"
           id="g104"><path
             id="path106"
             style="fill:#223c83;fill-opacity:1;fill-rule:nonzero;stroke:none"
             d="M 0,0 9.983,5.122 C 8.477,6.933 5.295,10.408 0.536,13.936 l -9.756,-4.453 -6.965,4.238 9.774,4.627 c -3.222,2.287 -8.268,4.555 -13.793,6.233 L -45.9,13.964 c 0,0 32.812,-9.63 39.959,-33.941 0,0 4.307,-13.376 -1.909,-20.478 L 7.987,-30.098 C 15.401,-12.075 0,0 0,0" /></g><g
           transform="translate(188.7342,174.6763)"
           id="g108"><path
             id="path110"
             style="fill:#70c8aa;fill-opacity:1;fill-rule:nonzero;stroke:none"
             d="M 0,0 C -0.101,0.745 -0.543,1.401 -1.195,1.773 -1.277,1.82 -9.067,4.941 -15.364,9.027 l -2.347,-1.535 c 3.945,-3.096 8.517,-6.566 11.327,-8.263 -9.515,-8.107 -21.158,-14.024 -27.748,-17.026 0.389,-0.92 0.692,-1.928 0.893,-2.997 7.239,2.812 22.19,9.247 32.456,18.255 C -0.219,-2.044 0.101,-0.745 0,0" /></g><g
           transform="translate(90.3758,232.9615)"
           id="g112"><path
             id="path114"
             style="fill:#70c8aa;fill-opacity:1;fill-rule:nonzero;stroke:none"
             d="M 0,0 35.41,10.758 C 38.53,9.092 42.125,6.97 45.882,4.34 l 5.856,2.42 c -7.303,6.364 -13.967,10.945 -18.728,13.18 -1.24,0.58 -2.996,-0.851 -3.578,-2.088 -0.581,-1.24 -0.657,-3.81 0.582,-4.392 0.396,-0.187 0.818,-0.388 1.251,-0.597 L -3.512,2.297 c -3.438,2.144 -6.527,3.774 -8.971,4.922 -1.241,0.579 -2.996,-0.851 -3.578,-2.088 -0.582,-1.24 -0.657,-3.811 0.582,-4.393 11.583,-5.438 39.179,-20.375 46.992,-53.227 2.087,-0.187 4.06,-2.052 5.211,-4.793 0.402,0.535 0.594,1.224 0.464,1.935 C 32.029,-27.259 14.084,-9.64 0,0" /></g><g
           transform="translate(234.3025,218.5279)"
           id="g116"><path
             id="path118"
             style="fill:#223c83;fill-opacity:1;fill-rule:nonzero;stroke:none"
             d="m 0,0 c -0.13,-1.098 -0.557,-2.113 -1.279,-3.044 -0.724,-0.933 -1.593,-1.59 -2.608,-1.973 -1.147,-0.408 -2.869,-0.612 -5.166,-0.612 h -1.224 l 1.321,11.183 h 1.186 c 2.375,0 4.014,-0.167 4.921,-0.498 C -1.894,4.724 -1.146,4.079 -0.608,3.122 -0.07,2.164 0.133,1.124 0,0 m 7.123,11.987 c -1.37,1.379 -3.079,2.367 -5.126,2.969 -2.049,0.598 -4.77,0.899 -8.166,0.899 -2.4,0 -4.362,-0.186 -5.888,-0.555 -1.523,-0.37 -2.837,-1.003 -3.937,-1.896 -1.124,-0.868 -1.952,-1.934 -2.485,-3.198 -0.532,-1.264 -0.942,-3.109 -1.229,-5.534 l -4.87,-41.206 h 10.647 l 2.445,20.68 c 4.012,0.05 7.112,0.357 9.298,0.918 2.185,0.562 4.196,1.583 6.032,3.064 4.055,3.217 6.375,7.289 6.958,12.217 0.552,4.672 -0.675,8.552 -3.679,11.642" /></g><g
           transform="translate(267.9832,198.7291)"
           id="g120"><path
             id="path122"
             style="fill:#223c83;fill-opacity:1;fill-rule:nonzero;stroke:none"
             d="m 0,0 c -0.243,-2.068 -1.182,-3.944 -2.811,-5.629 -1.799,-1.839 -3.924,-2.759 -6.376,-2.759 -2.169,0 -3.957,0.754 -5.361,2.26 -1.518,1.634 -2.13,3.702 -1.834,6.204 0.257,2.17 1.112,3.995 2.563,5.477 1.948,2.016 4.161,3.025 6.638,3.025 C -5.222,8.527 -3.564,7.862 -2.208,6.587 -0.419,4.877 0.317,2.681 0,0 m -6.035,17.961 c -4.856,-0.051 -9.131,-1.66 -12.824,-4.825 -4.206,-3.626 -6.612,-7.98 -7.211,-13.06 -0.348,-2.935 0.013,-5.705 1.086,-8.309 1.169,-2.86 3.041,-5.146 5.624,-6.857 2.675,-1.761 5.713,-2.641 9.107,-2.641 3.346,0 6.523,0.868 9.537,2.604 2.874,1.633 5.243,3.856 7.108,6.663 1.798,2.706 2.867,5.476 3.203,8.311 0.56,4.748 -0.505,8.807 -3.197,12.178 -3.105,3.957 -7.249,5.936 -12.433,5.936" /></g><g
           transform="translate(307.533,213.2437)"
           id="g124"><path
             id="path126"
             style="fill:#223c83;fill-opacity:1;fill-rule:nonzero;stroke:none"
             d="m 0,0 c -2.512,2.296 -5.554,3.446 -9.129,3.446 -2.45,0 -4.842,-0.574 -7.174,-1.724 -2.197,-1.097 -4.109,-2.591 -5.736,-4.48 -1.276,-1.507 -2.229,-3.077 -2.854,-4.71 -0.629,-1.635 -1.095,-3.754 -1.403,-6.358 l -2.059,-17.424 h 9.611 l 2.105,17.809 c 0.196,1.658 0.372,2.781 0.532,3.369 0.16,0.588 0.427,1.174 0.801,1.761 0.55,0.766 1.316,1.411 2.299,1.934 0.981,0.523 1.931,0.785 2.85,0.785 0.892,0 1.756,-0.255 2.589,-0.765 0.834,-0.512 1.408,-1.163 1.722,-1.954 0.403,-0.918 0.458,-2.604 0.169,-5.054 L -7.791,-31.25 h 9.612 l 2.101,17.77 c 0.367,3.113 0.244,5.738 -0.371,7.869 C 2.934,-3.479 1.751,-1.608 0,0" /></g><g
           transform="translate(328.7869,206.4654)"
           id="g128"><path
             id="path130"
             style="fill:#223c83;fill-opacity:1;fill-rule:nonzero;stroke:none"
             d="M 0,0 H 7.01 L 8.101,9.229 H 1.092 L 2.449,20.717 H -7.163 L -8.521,9.229 h -5.783 L -15.395,0 h 5.784 l -0.693,-5.86 c -0.409,-3.676 -0.619,-6.096 -0.628,-7.257 -0.01,-1.162 0.176,-2.292 0.556,-3.389 1.844,-5.361 6.032,-8.042 12.569,-8.042 h 1.915 l 1.068,9.037 c -3.121,-0.052 -5.078,0.677 -5.869,2.183 -0.311,0.613 -0.476,1.276 -0.493,1.991 -0.018,0.716 0.111,2.234 0.385,4.558 z" /></g><g
           transform="translate(362.7957,198.7291)"
           id="g132"><path
             id="path134"
             style="fill:#223c83;fill-opacity:1;fill-rule:nonzero;stroke:none"
             d="m 0,0 c -0.243,-2.068 -1.182,-3.944 -2.811,-5.629 -1.799,-1.839 -3.924,-2.759 -6.376,-2.759 -2.169,0 -3.957,0.754 -5.361,2.26 -1.518,1.634 -2.13,3.702 -1.834,6.204 0.257,2.17 1.111,3.995 2.563,5.477 1.948,2.016 4.161,3.025 6.638,3.025 C -5.222,8.527 -3.564,7.862 -2.207,6.587 -0.419,4.877 0.317,2.681 0,0 m 6.399,12.025 c -3.106,3.957 -7.25,5.936 -12.434,5.936 -4.856,-0.051 -9.131,-1.66 -12.824,-4.825 -4.206,-3.626 -6.612,-7.98 -7.211,-13.06 -0.348,-2.935 0.013,-5.705 1.086,-8.309 1.169,-2.86 3.041,-5.146 5.624,-6.857 2.675,-1.761 5.713,-2.641 9.107,-2.641 3.346,0 6.523,0.868 9.537,2.604 2.874,1.633 5.243,3.856 7.108,6.663 1.798,2.706 2.867,5.476 3.203,8.311 0.56,4.748 -0.505,8.807 -3.196,12.178" /></g><g
           transform="translate(412.4217,234.2681)"
           id="g136"><path
             id="path138"
             style="fill:#70c8aa;fill-opacity:1;fill-rule:nonzero;stroke:none"
             d="m 0,0 -4.432,-10.225 h -16.715 l -1.165,-9.843 h 14.093 l -4.395,-9.918 h -10.869 l -2.635,-22.288 h -10.648 l 4.867,41.168 c 0.479,4.059 1.628,6.925 3.449,8.597 1.818,1.673 4.692,2.509 8.625,2.509 z" /></g><g
           transform="translate(422.7049,207.3072)"
           id="g140"><path
             id="path142"
             style="fill:#70c8aa;fill-opacity:1;fill-rule:nonzero;stroke:none"
             d="m 0,0 c -2.477,0 -4.689,-1.009 -6.639,-3.025 -1.45,-1.482 -2.304,-3.307 -2.561,-5.477 -0.296,-2.502 0.315,-4.57 1.833,-6.204 1.405,-1.506 3.191,-2.26 5.362,-2.26 2.451,0 4.576,0.92 6.376,2.759 1.629,1.685 2.566,3.561 2.811,5.629 0.317,2.681 -0.419,4.877 -2.208,6.587 C 3.616,-0.716 1.96,-0.051 0,0 m 1.146,9.383 c 5.184,0 9.329,-1.979 12.434,-5.936 2.691,-3.371 3.757,-7.43 3.195,-12.178 -0.335,-2.835 -1.403,-5.605 -3.202,-8.311 -1.865,-2.808 -4.233,-5.03 -7.107,-6.663 -3.015,-1.736 -6.192,-2.605 -9.537,-2.605 -3.395,0 -6.432,0.881 -9.108,2.642 -2.583,1.711 -4.455,3.997 -5.624,6.856 -1.072,2.605 -1.433,5.374 -1.087,8.31 0.601,5.08 3.005,9.434 7.212,13.06 3.694,3.165 7.968,4.774 12.824,4.825" /></g><g
           transform="translate(450.6922,181.9937)"
           id="g144"><path
             id="path146"
             style="fill:#70c8aa;fill-opacity:1;fill-rule:nonzero;stroke:none"
             d="m 0,0 h -9.612 l 2.037,17.233 c 0.296,2.501 0.587,4.308 0.871,5.419 0.283,1.111 0.746,2.214 1.388,3.313 3.003,5.131 7.801,7.697 14.389,7.697 0.33,0 0.84,-0.013 1.527,-0.037 L 9.554,24.777 8.4,24.738 C 6.275,24.687 4.785,24.279 3.928,23.514 3.071,22.748 2.524,21.356 2.286,19.34 Z" /></g><g
           transform="translate(469.825,206.4654)"
           id="g148"><path
             id="path150"
             style="fill:#70c8aa;fill-opacity:1;fill-rule:nonzero;stroke:none"
             d="m 0,0 h -5.783 l 1.092,9.229 h 5.783 l 1.356,11.488 h 9.613 L 10.703,9.229 h 7.01 L 16.621,0 H 9.612 l -0.8,-6.779 c -0.276,-2.324 -0.405,-3.842 -0.385,-4.558 0.015,-0.715 0.181,-1.378 0.491,-1.991 0.792,-1.506 2.748,-2.235 5.87,-2.183 l -1.068,-9.037 h -1.915 c -6.537,0 -10.726,2.681 -12.569,8.042 -0.38,1.097 -0.566,2.227 -0.556,3.389 0.009,1.161 0.218,3.581 0.628,7.257 z" /></g><g
           transform="translate(497.5017,202.1763)"
           id="g152"><path
             id="path154"
             style="fill:#70c8aa;fill-opacity:1;fill-rule:nonzero;stroke:none"
             d="M 0,0 H 13.899 C 12.956,3.241 10.875,4.863 7.658,4.863 5.998,4.863 4.485,4.428 3.119,3.561 1.753,2.693 0.713,1.506 0,0 m 22.341,-9.268 c -1.24,-2.503 -2.763,-4.571 -4.564,-6.205 -3.745,-3.396 -8.031,-5.093 -12.856,-5.093 -5.184,0 -9.208,1.915 -12.073,5.745 -2.494,3.318 -3.481,7.174 -2.961,11.564 0.596,5.057 2.92,9.269 6.969,12.639 3.544,2.987 7.577,4.481 12.096,4.481 4.952,0 8.904,-1.788 11.851,-5.362 C 23.275,5.437 24.315,2.26 23.927,-1.034 23.712,-2.848 22.865,-4.29 21.386,-5.362 19.904,-6.436 18.018,-6.971 15.72,-6.971 H -0.519 c 1.062,-3.114 3.175,-4.672 6.342,-4.672 1.939,0 3.847,0.792 5.718,2.375 z" /></g><g
           transform="translate(525.6483,220.4327)"
           id="g156"><path
             id="path158"
             style="fill:#61c8a2;fill-opacity:1;fill-rule:nonzero;stroke:none"
             d="M 0,0 0.028,0.007 C 0.166,0.042 0.4,0.076 0.735,0.076 1.14,0.075 1.438,-0.008 1.639,-0.161 1.84,-0.313 1.937,-0.535 1.936,-0.793 1.937,-1.089 1.784,-1.304 1.547,-1.437 1.31,-1.57 0.989,-1.628 0.636,-1.628 H 0.038 0 Z m 0.603,-2.449 c 0.705,0.005 1.067,-0.282 1.166,-0.892 0.162,-0.619 0.266,-1.11 0.416,-1.3 h 1.273 c -0.12,0.214 -0.217,0.558 -0.368,1.316 -0.167,0.724 -0.454,1.105 -0.973,1.3 l -0.025,0.009 v 0.027 0.095 l 0.027,0.008 c 0.654,0.198 1.103,0.65 1.103,1.226 0,0.519 -0.228,0.94 -0.516,1.164 -0.393,0.228 -0.848,0.392 -1.871,0.392 -0.878,0 -1.562,-0.065 -2.055,-0.161 v -5.376 h 1.187 v 2.192 h 0.038 z" /></g><g
           transform="translate(529.5496,215.4952)"
           id="g160"><path
             id="path162"
             style="fill:#61c8a2;fill-opacity:1;fill-rule:nonzero;stroke:none"
             d="m 0,0 c -0.745,-0.788 -1.794,-1.274 -3,-1.274 -1.238,0 -2.312,0.486 -3.074,1.278 -0.763,0.792 -1.215,1.889 -1.215,3.111 0,1.205 0.452,2.302 1.21,3.098 0.759,0.796 1.823,1.291 3.046,1.291 1.222,0 2.279,-0.495 3.029,-1.295 C 0.746,5.409 1.189,4.303 1.189,3.082 1.189,1.876 0.746,0.788 0,0 m -3.033,8.523 c -3.102,0 -5.574,-2.408 -5.574,-5.408 0,-3.067 2.472,-5.475 5.574,-5.475 3.135,10e-4 5.541,2.407 5.541,5.475 0,3.001 -2.406,5.408 -5.541,5.408" /></g></g></g></g></svg>